<?xml version="1.0" encoding="UTF-8"?>
<svg width="950px" height="410px" viewBox="0 0 950 410" version="1.1" xmlns="http://www.w3.org/2000/svg" xmlns:xlink="http://www.w3.org/1999/xlink">
    <title>Group 2</title>
    <g id="Page-3" stroke="none" stroke-width="1" fill="none" fill-rule="evenodd">
        <g id="Group-2">
            <rect id="Rectangle" fill="#F5F5F5" x="0" y="0" width="950" height="410"></rect>
            <g id="johnd@wify.me" transform="translate(92, 190.474)" fill="#000000" fill-rule="nonzero">
                <path d="M0.81,1.224 C0.81,0.948 0.912,0.708 1.116,0.504 C1.32,0.3 1.56,0.198 1.836,0.198 C2.112,0.198 2.349,0.297 2.547,0.495 C2.745,0.693 2.844,0.93 2.844,1.206 C2.844,1.482 2.742,1.722 2.538,1.926 C2.334,2.13 2.1,2.232 1.836,2.232 C1.572,2.232 1.335,2.13 1.125,1.926 C0.915,1.722 0.81,1.488 0.81,1.224 Z M1.224,3.888 L2.466,3.888 L2.466,14.31 C2.466,15.09 2.364,15.663 2.16,16.029 C1.956,16.395 1.662,16.578 1.278,16.578 C0.894,16.578 0.468,16.488 0,16.308 L0,15.21 C0.348,15.366 0.606,15.444 0.774,15.444 C0.942,15.444 1.059,15.342 1.125,15.138 C1.191,14.934 1.224,14.538 1.224,13.95 L1.224,3.888 Z" id="Shape"></path>
                <path d="M4.572,8.73 C4.572,7.326 5.055,6.126 6.021,5.13 C6.987,4.134 8.163,3.636 9.549,3.636 C10.935,3.636 12.111,4.134 13.077,5.13 C14.043,6.126 14.526,7.32 14.526,8.712 C14.526,10.104 14.049,11.295 13.095,12.285 C12.141,13.275 10.962,13.77 9.558,13.77 C8.154,13.77 6.972,13.275 6.012,12.285 C5.052,11.295 4.572,10.11 4.572,8.73 Z M13.284,8.748 C13.284,7.692 12.915,6.777 12.177,6.003 C11.439,5.229 10.563,4.842 9.549,4.842 C8.535,4.842 7.662,5.229 6.93,6.003 C6.198,6.777 5.832,7.698 5.832,8.766 C5.832,9.834 6.186,10.74 6.894,11.484 C7.602,12.228 8.481,12.6 9.531,12.6 C10.581,12.6 11.469,12.225 12.195,11.475 C12.921,10.725 13.284,9.816 13.284,8.748 Z" id="Shape"></path>
                <path d="M16.812,0.198 L18.054,0.198 L18.054,5.598 C19.038,4.29 20.232,3.636 21.636,3.636 C22.356,3.636 23.004,3.831 23.58,4.221 C24.156,4.611 24.564,5.121 24.804,5.751 C25.044,6.381 25.164,7.308 25.164,8.532 L25.164,13.446 L23.922,13.446 L23.922,8.892 C23.922,7.908 23.892,7.23 23.832,6.858 C23.772,6.486 23.64,6.132 23.436,5.796 C23.232,5.46 22.959,5.205 22.617,5.031 C22.275,4.857 21.861,4.77 21.375,4.77 C20.889,4.77 20.424,4.884 19.98,5.112 C19.536,5.34 19.158,5.658 18.846,6.066 C18.534,6.474 18.324,6.894 18.216,7.326 C18.108,7.758 18.054,8.628 18.054,9.936 L18.054,13.446 L16.812,13.446 L16.812,0.198 Z" id="Path"></path>
                <path d="M27.792,3.888 L29.034,3.888 L29.034,5.598 C30.018,4.29 31.212,3.636 32.616,3.636 C33.336,3.636 33.984,3.831 34.56,4.221 C35.136,4.611 35.544,5.121 35.784,5.751 C36.024,6.381 36.144,7.308 36.144,8.532 L36.144,13.446 L34.92,13.446 L34.92,8.892 C34.92,7.776 34.869,7.02 34.767,6.624 C34.665,6.228 34.509,5.892 34.299,5.616 C34.089,5.34 33.822,5.13 33.498,4.986 C33.174,4.842 32.781,4.77 32.319,4.77 C31.857,4.77 31.404,4.884 30.96,5.112 C30.516,5.34 30.138,5.658 29.826,6.066 C29.514,6.474 29.304,6.894 29.196,7.326 C29.088,7.758 29.034,8.628 29.034,9.936 L29.034,13.446 L27.792,13.446 L27.792,3.888 Z" id="Path"></path>
                <path d="M48.312,0.198 L48.312,13.446 L47.106,13.446 L47.106,11.808 C46.014,13.116 44.763,13.77 43.353,13.77 C41.943,13.77 40.758,13.272 39.798,12.276 C38.838,11.28 38.358,10.086 38.358,8.694 C38.358,7.302 38.844,6.111 39.816,5.121 C40.788,4.131 41.952,3.636 43.308,3.636 C44.868,3.636 46.134,4.302 47.106,5.634 L47.106,0.198 L48.312,0.198 Z M47.178,8.73 C47.178,7.638 46.818,6.714 46.098,5.958 C45.378,5.202 44.478,4.824 43.398,4.824 C42.318,4.824 41.415,5.211 40.689,5.985 C39.963,6.759 39.6,7.671 39.6,8.721 C39.6,9.771 39.972,10.686 40.716,11.466 C41.46,12.246 42.339,12.636 43.353,12.636 C44.367,12.636 45.258,12.267 46.026,11.529 C46.794,10.791 47.178,9.858 47.178,8.73 Z" id="Shape"></path>
                <path d="M62.424,10.89 L63.36,10.89 C62.64,11.85 61.848,12.57 60.984,13.05 C60.12,13.53 59.061,13.77 57.807,13.77 C56.553,13.77 55.371,13.443 54.261,12.789 C53.151,12.135 52.32,11.289 51.768,10.251 C51.216,9.213 50.94,8.097 50.94,6.903 C50.94,5.709 51.231,4.575 51.813,3.501 C52.395,2.427 53.22,1.575 54.288,0.945 C55.356,0.315 56.493,0 57.699,0 C58.905,0 59.997,0.258 60.975,0.774 C61.953,1.29 62.724,1.989 63.288,2.871 C63.852,3.753 64.134,4.68 64.134,5.652 C64.134,6.624 63.912,7.506 63.468,8.298 C63.024,9.09 62.433,9.714 61.695,10.17 C60.957,10.626 60.252,10.854 59.58,10.854 C58.908,10.854 58.572,10.53 58.572,9.882 C58.032,10.47 57.366,10.764 56.574,10.764 C55.782,10.764 55.11,10.47 54.558,9.882 C54.006,9.294 53.73,8.532 53.73,7.596 C53.73,6.876 53.91,6.165 54.27,5.463 C54.63,4.761 55.098,4.251 55.674,3.933 C56.25,3.615 56.844,3.456 57.456,3.456 C58.524,3.456 59.304,3.888 59.796,4.752 L60.012,3.546 L60.966,3.546 L59.94,9.288 C59.916,9.408 59.904,9.51 59.904,9.594 C59.904,9.918 60.048,10.08 60.336,10.08 C60.996,10.08 61.68,9.669 62.388,8.847 C63.096,8.025 63.45,7.02 63.45,5.832 C63.45,4.392 62.907,3.189 61.821,2.223 C60.735,1.257 59.388,0.774 57.78,0.774 C56.616,0.774 55.563,1.044 54.621,1.584 C53.679,2.124 52.944,2.871 52.416,3.825 C51.888,4.779 51.624,5.793 51.624,6.867 C51.624,7.941 51.876,8.943 52.38,9.873 C52.884,10.803 53.631,11.556 54.621,12.132 C55.611,12.708 56.7,12.996 57.888,12.996 C58.824,12.996 59.637,12.822 60.327,12.474 C61.017,12.126 61.716,11.598 62.424,10.89 Z M57.042,9.774 C57.774,9.774 58.347,9.447 58.761,8.793 C59.175,8.139 59.382,7.338 59.382,6.39 C59.382,5.79 59.217,5.307 58.887,4.941 C58.557,4.575 58.128,4.392 57.6,4.392 C56.88,4.392 56.268,4.689 55.764,5.283 C55.26,5.877 55.008,6.564 55.008,7.344 C55.008,8.124 55.203,8.724 55.593,9.144 C55.983,9.564 56.466,9.774 57.042,9.774 Z" id="Shape"></path>
                <polygon id="Path" points="65.412 3.888 66.69 3.888 69.606 11.142 72.684 3.888 72.9 3.888 75.96 11.142 78.93 3.888 80.226 3.888 76.068 13.77 75.834 13.77 72.792 6.606 69.732 13.77 69.498 13.77"></polygon>
                <path d="M81.09,1.224 C81.09,0.948 81.189,0.708 81.387,0.504 C81.585,0.3 81.825,0.198 82.107,0.198 C82.389,0.198 82.629,0.297 82.827,0.495 C83.025,0.693 83.124,0.933 83.124,1.215 C83.124,1.497 83.025,1.737 82.827,1.935 C82.629,2.133 82.389,2.232 82.107,2.232 C81.825,2.232 81.585,2.13 81.387,1.926 C81.189,1.722 81.09,1.488 81.09,1.224 Z M81.486,3.888 L82.728,3.888 L82.728,13.446 L81.486,13.446 L81.486,3.888 Z" id="Shape"></path>
                <path d="M89.208,0.45 L89.208,1.656 C88.74,1.452 88.323,1.35 87.957,1.35 C87.591,1.35 87.354,1.467 87.246,1.701 C87.138,1.935 87.084,2.316 87.084,2.844 L87.084,3.888 L89.082,3.888 L89.082,4.932 L87.084,4.932 L87.084,13.446 L85.842,13.446 L85.842,4.932 L84.6,4.932 L84.6,3.888 L85.842,3.888 L85.842,2.646 C85.842,1.806 85.998,1.188 86.31,0.792 C86.622,0.396 87.108,0.198 87.768,0.198 C88.152,0.198 88.632,0.282 89.208,0.45 Z" id="Path"></path>
                <polygon id="Path" points="89.892 3.888 91.188 3.888 94.482 11.25 97.668 3.888 98.982 3.888 93.276 16.938 91.98 16.938 93.816 12.726"></polygon>
                <path d="M100.836,12.6 C100.836,12.3 100.944,12.045 101.16,11.835 C101.376,11.625 101.631,11.52 101.925,11.52 C102.219,11.52 102.471,11.625 102.681,11.835 C102.891,12.045 102.996,12.303 102.996,12.609 C102.996,12.915 102.891,13.173 102.681,13.383 C102.471,13.593 102.219,13.698 101.925,13.698 C101.631,13.698 101.376,13.59 101.16,13.374 C100.944,13.158 100.836,12.9 100.836,12.6 Z" id="Path"></path>
                <path d="M105.552,3.888 L106.776,3.888 L106.776,5.544 C107.628,4.272 108.72,3.636 110.052,3.636 C110.76,3.636 111.393,3.837 111.951,4.239 C112.509,4.641 112.884,5.208 113.076,5.94 C113.472,5.196 113.976,4.626 114.588,4.23 C115.2,3.834 115.905,3.636 116.703,3.636 C117.501,3.636 118.224,3.945 118.872,4.563 C119.52,5.181 119.844,6.402 119.844,8.226 L119.844,13.446 L118.584,13.446 L118.584,8.226 C118.584,7.35 118.53,6.705 118.422,6.291 C118.314,5.877 118.08,5.529 117.72,5.247 C117.36,4.965 116.883,4.824 116.289,4.824 C115.695,4.824 115.14,5.022 114.624,5.418 C114.108,5.814 113.754,6.318 113.562,6.93 C113.37,7.542 113.274,8.466 113.274,9.702 L113.274,13.446 L112.068,13.446 L112.068,8.55 C112.068,7.53 112.014,6.801 111.906,6.363 C111.798,5.925 111.558,5.559 111.186,5.265 C110.814,4.971 110.358,4.824 109.818,4.824 C109.278,4.824 108.771,4.983 108.297,5.301 C107.823,5.619 107.451,6.054 107.181,6.606 C106.911,7.158 106.776,8.088 106.776,9.396 L106.776,13.446 L105.552,13.446 L105.552,3.888 Z" id="Path"></path>
                <path d="M130.482,10.35 L131.526,10.89 C130.494,12.81 128.97,13.77 126.954,13.77 C125.514,13.77 124.326,13.275 123.39,12.285 C122.454,11.295 121.986,10.104 121.986,8.712 C121.986,7.32 122.457,6.126 123.399,5.13 C124.341,4.134 125.505,3.636 126.891,3.636 C128.277,3.636 129.441,4.098 130.383,5.022 C131.325,5.946 131.814,7.206 131.85,8.802 L123.246,8.802 C123.282,9.954 123.645,10.881 124.335,11.583 C125.025,12.285 125.862,12.636 126.846,12.636 C128.466,12.636 129.678,11.874 130.482,10.35 Z M130.482,7.74 C130.314,6.828 129.894,6.114 129.222,5.598 C128.55,5.082 127.776,4.824 126.9,4.824 C125.1,4.824 123.924,5.796 123.372,7.74 L130.482,7.74 Z" id="Shape"></path>
            </g>
            <g id="wify.me" transform="translate(92.068, 212.468)" fill="#000000" fill-rule="nonzero">
                <polygon id="Path" points="0 3.485 1.207 3.485 3.961 10.336 6.868 3.485 7.072 3.485 9.962 10.336 12.767 3.485 13.991 3.485 10.064 12.818 9.843 12.818 6.97 6.052 4.08 12.818 3.859 12.818"></polygon>
                <path d="M14.807,0.969 C14.807,0.708333333 14.9005,0.481666667 15.0875,0.289 C15.2745,0.0963333333 15.5011667,8.8817842e-16 15.7675,8.8817842e-16 C16.0338333,8.8817842e-16 16.2605,0.0935 16.4475,0.2805 C16.6345,0.4675 16.728,0.694166667 16.728,0.9605 C16.728,1.22683333 16.6345,1.4535 16.4475,1.6405 C16.2605,1.8275 16.0338333,1.921 15.7675,1.921 C15.5011667,1.921 15.2745,1.82466667 15.0875,1.632 C14.9005,1.43933333 14.807,1.21833333 14.807,0.969 Z M15.181,3.485 L16.354,3.485 L16.354,12.512 L15.181,12.512 L15.181,3.485 Z" id="Shape"></path>
                <path d="M22.474,0.238 L22.474,1.377 C22.032,1.18433333 21.6381667,1.088 21.2925,1.088 C20.9468333,1.088 20.723,1.1985 20.621,1.4195 C20.519,1.6405 20.468,2.00033333 20.468,2.499 L20.468,3.485 L22.355,3.485 L22.355,4.471 L20.468,4.471 L20.468,12.512 L19.295,12.512 L19.295,4.471 L18.122,4.471 L18.122,3.485 L19.295,3.485 L19.295,2.312 C19.295,1.51866667 19.4423333,0.935 19.737,0.561 C20.0316667,0.187 20.4906667,8.8817842e-16 21.114,8.8817842e-16 C21.4766667,8.8817842e-16 21.93,0.0793333333 22.474,0.238 Z" id="Path"></path>
                <polygon id="Path" points="23.12 3.485 24.344 3.485 27.455 10.438 30.464 3.485 31.705 3.485 26.316 15.81 25.092 15.81 26.826 11.832"></polygon>
                <path d="M33.456,11.713 C33.456,11.4296667 33.558,11.1888333 33.762,10.9905 C33.966,10.7921667 34.2068333,10.693 34.4845,10.693 C34.7621667,10.693 35.0001667,10.7921667 35.1985,10.9905 C35.3968333,11.1888333 35.496,11.4325 35.496,11.7215 C35.496,12.0105 35.3968333,12.2541667 35.1985,12.4525 C35.0001667,12.6508333 34.7621667,12.75 34.4845,12.75 C34.2068333,12.75 33.966,12.648 33.762,12.444 C33.558,12.24 33.456,11.9963333 33.456,11.713 Z" id="Path"></path>
                <path d="M37.91,3.485 L39.066,3.485 L39.066,5.049 C39.8706667,3.84766667 40.902,3.247 42.16,3.247 C42.8286667,3.247 43.4265,3.43683333 43.9535,3.8165 C44.4805,4.19616667 44.8346667,4.73166667 45.016,5.423 C45.39,4.72033333 45.866,4.182 46.444,3.808 C47.022,3.434 47.6878333,3.247 48.4415,3.247 C49.1951667,3.247 49.878,3.53883333 50.49,4.1225 C51.102,4.70616667 51.408,5.85933333 51.408,7.582 L51.408,12.512 L50.218,12.512 L50.218,7.582 C50.218,6.75466667 50.167,6.1455 50.065,5.7545 C49.963,5.3635 49.742,5.03483333 49.402,4.7685 C49.062,4.50216667 48.6115,4.369 48.0505,4.369 C47.4895,4.369 46.9653333,4.556 46.478,4.93 C45.9906667,5.304 45.6563333,5.78 45.475,6.358 C45.2936667,6.936 45.203,7.80866667 45.203,8.976 L45.203,12.512 L44.064,12.512 L44.064,7.888 C44.064,6.92466667 44.013,6.23616667 43.911,5.8225 C43.809,5.40883333 43.5823333,5.06316667 43.231,4.7855 C42.8796667,4.50783333 42.449,4.369 41.939,4.369 C41.429,4.369 40.9501667,4.51916667 40.5025,4.8195 C40.0548333,5.11983333 39.7035,5.53066667 39.4485,6.052 C39.1935,6.57333333 39.066,7.45166667 39.066,8.687 L39.066,12.512 L37.91,12.512 L37.91,3.485 Z" id="Path"></path>
                <path d="M61.455,9.588 L62.441,10.098 C61.4663333,11.9113333 60.027,12.818 58.123,12.818 C56.763,12.818 55.641,12.3505 54.757,11.4155 C53.873,10.4805 53.431,9.35566667 53.431,8.041 C53.431,6.72633333 53.8758333,5.59866667 54.7655,4.658 C55.6551667,3.71733333 56.7545,3.247 58.0635,3.247 C59.3725,3.247 60.4718333,3.68333333 61.3615,4.556 C62.2511667,5.42866667 62.713,6.61866667 62.747,8.126 L54.621,8.126 C54.655,9.214 54.9978333,10.0895 55.6495,10.7525 C56.3011667,11.4155 57.0916667,11.747 58.021,11.747 C59.551,11.747 60.6956667,11.0273333 61.455,9.588 Z M61.455,7.123 C61.2963333,6.26166667 60.8996667,5.58733333 60.265,5.1 C59.6303333,4.61266667 58.8993333,4.369 58.072,4.369 C56.372,4.369 55.2613333,5.287 54.74,7.123 L61.455,7.123 Z" id="Shape"></path>
            </g>
            <text id="Hummingbrid-Avenue," font-family="HoeflerText-Regular, Hoefler Text" font-size="17" font-weight="normal" fill="#000000">
                <tspan x="92" y="247">Hummingbrid Avenue, </tspan>
                <tspan x="92" y="267">City of Belmopan</tspan>
            </text>
            <g id="logo" transform="translate(85, 95)" fill-rule="nonzero">
                <g id="Group" transform="translate(0, 16)" fill="#553F2E">
                    <path d="M1.54624668,37.463673 C1.36164376,36.9451412 1.06764652,36.8414349 0.514889625,36.8414349 L0,36.8414349 L0,33.1070185 L3.20346548,33.1070185 C4.74971216,33.1070185 5.4860201,33.5564127 5.85417407,34.9050891 L8.61585479,44.6890427 C8.87356256,45.6223999 8.98400876,46.5557571 8.98400876,46.5557571 L9.05763955,46.5557571 C9.05763955,46.5557571 9.20490114,45.6219061 9.49942432,44.6890427 L12.9605976,33.1766499 L17.084448,33.1766499 L20.5819107,44.6890427 C20.8769598,45.6223999 20.987406,46.5557571 20.987406,46.5557571 L21.0610368,46.5557571 C21.0610368,46.5557571 21.171483,45.6219061 21.4291908,44.6890427 L24.1540561,34.9050891 C24.5222101,33.5569065 25.258518,33.1070185 26.8047647,33.1070185 L30.0082302,33.1070185 L30.0082302,36.8414349 L29.4933405,36.8414349 C28.9405836,36.8414349 28.6828759,36.9451412 28.4619835,37.463673 L23.9699791,50.7395676 L18.7037995,50.7395676 L15.500334,40.6790637 C15.2058109,39.7452127 15.0585493,38.7772868 15.0585493,38.7772868 L14.9849185,38.7772868 C14.9849185,38.7772868 14.8003156,39.7452127 14.5063183,40.6790637 L11.3396682,50.7395676 L6.03825106,50.7395676 L1.54624668,37.463673 Z" id="Path"></path>
                    <path d="M33.5756421,37.6019481 C33.5756421,37.0829225 33.280593,36.8414349 32.7657034,36.8414349 L31.2925616,36.8414349 L31.2925616,33.1070185 L35.7477506,33.1070185 C37.4786002,33.1070185 38.2143822,33.8334568 38.2143822,35.4581897 L38.2143822,46.2792068 C38.2143822,46.7631698 38.5094313,47.03972 39.0248468,47.03972 L40.4974627,47.03972 L40.4974627,50.7390738 L36.0422737,50.7390738 C34.3119501,50.7390738 33.5756421,50.0476981 33.5756421,48.3879026 L33.5756421,37.6019481 Z" id="Path"></path>
                    <path d="M44.4356583,36.5994534 L42.1162883,36.5994534 L42.1162883,33.1075123 L44.4356583,33.1075123 L44.4356583,32.5889806 C44.4356583,26.8154998 49.4798937,26.0549865 52.0943128,26.0549865 C53.0515131,26.0549865 53.6779008,26.1586929 53.6779008,26.1586929 L53.6779008,29.8926154 C53.6779008,29.8926154 53.2724055,29.8234778 52.7207005,29.8234778 C51.3948203,29.8234778 49.1122656,30.1345969 49.1122656,32.6931808 L49.1122656,33.1080062 L53.1256699,33.1080062 L53.1256699,36.5999472 L49.1117397,36.5999472 L49.1117397,50.7400615 L44.4356583,50.7400615 L44.4356583,36.5994534 L44.4356583,36.5994534 Z" id="Path"></path>
                    <path d="M58.6095862,54.3006462 C59.8981251,54.3006462 61.0394024,53.5742079 61.7020796,52.0531814 L62.3279413,50.7049989 L56.0687979,37.4641668 C55.8479055,36.9456351 55.5901977,36.8419287 55.0747822,36.8419287 L54.5220253,36.8419287 L54.5220253,33.1075123 L57.6150446,33.1075123 C58.9409248,33.1075123 59.603076,33.5569065 60.0816762,34.766814 L63.7637418,43.5833355 C64.1318958,44.4821239 64.426419,45.9340128 64.426419,45.9340128 L64.5005757,45.9340128 C64.5005757,45.9340128 64.7950989,44.4826177 65.1259115,43.5833355 L68.329377,34.766814 C68.7711617,33.5569065 69.544811,33.1075123 70.8333499,33.1075123 L74,33.1075123 L74,36.8419287 L73.447769,36.8419287 C72.8950122,36.8419287 72.6010149,36.9456351 72.3801225,37.4641668 L65.641853,53.4018579 C64.3159728,56.582186 61.6652642,58 58.8667681,58 C55.9210104,58 54.1175818,56.2024232 54.1175818,56.2024232 L55.9215363,53.0907388 C55.9215363,53.090245 57.0633395,54.3006462 58.6095862,54.3006462 Z" id="Path"></path>
                    <path d="M30.6098989,26.0767155 L35.1834231,30.3711461 L39.7574732,26.0767155 C38.5872695,24.9759466 36.9705477,24.2964231 35.1834231,24.2964231 C33.3973504,24.2964231 31.7806286,24.9759466 30.6098989,26.0767155 Z" id="Path"></path>
                    <path d="M21.467584,17.4918048 L26.0369007,21.7803094 C28.3773081,19.5832163 31.6128555,18.2231815 35.1839491,18.2231815 C38.7560944,18.2231815 41.99059,19.5832163 44.3320493,21.7803094 L48.901366,17.4918048 C45.3870734,14.1909798 40.5363819,12.1484585 35.184475,12.1484585 C29.8330941,12.1484585 24.9813507,14.1914736 21.467584,17.4918048 Z" id="Path"></path>
                    <path d="M12.3226393,8.90541265 L16.8882745,13.1904604 C21.5706671,8.79380487 28.0396583,6.07620459 35.1839491,6.07620459 C42.3292917,6.07620459 48.7982829,8.79380487 53.4796236,13.1904604 L58.0452588,8.90541265 C52.1879291,3.40601292 44.1016901,0 35.1834231,0 C26.2667339,0 18.179969,3.40601292 12.3226393,8.90541265 Z" id="Path"></path>
                </g>
                <g id="Group" transform="translate(10, 0)" fill="#B3CC1F">
                    <path d="M25.9217178,7.68033757 C35.7142065,7.68033757 44.6414706,11.4939895 51.3819824,17.7567368 C51.6781158,16.6016633 51.8444656,15.3930257 51.8444656,14.1424915 C51.8444656,6.33169108 45.6962206,0 38.1110847,0 C32.8079788,0 28.2109579,3.09663659 25.9217178,7.62783423 C23.6335076,3.09663659 19.0364868,0 13.7333809,0 C6.14772997,0 -7.10542736e-15,6.33169108 -7.10542736e-15,14.1424915 C-7.10542736e-15,15.3930257 0.166349735,16.6021936 0.462483163,17.7567368 C7.20402504,11.4939895 16.1307741,7.68033757 25.9217178,7.68033757 Z" id="Path"></path>
                    <path d="M68.0766976,54.4459671 C68.0766976,53.8885832 67.7882894,53.6292485 67.283575,53.6292485 L65.8410189,53.6292485 L65.8410189,49.6188416 L70.059504,49.6188416 C71.6818002,49.6188416 72.4749227,50.398967 72.4749227,51.7354157 L72.4749227,52.2922694 C72.4749227,52.7006287 72.4388717,53.1089881 72.4388717,53.1089881 L72.5114888,53.1089881 C73.3767134,51.2528092 75.575826,49.1733586 78.4604231,49.1733586 C81.2368671,49.1733586 83.0394184,50.5103377 83.833056,53.0718645 L83.9051581,53.0718645 C84.8785358,51.0300678 87.2584185,49.1733586 90.1785516,49.1733586 C94.0004754,49.1733586 96.199588,51.4007732 96.199588,56.3758628 L96.199588,63.7645151 C96.199588,64.2842452 96.4885112,64.5812338 96.9927106,64.5812338 L98.3987006,64.5812338 L98.3987006,68.5539867 L94.0725775,68.5539867 C92.3421282,68.5539867 91.6205927,67.8115152 91.6205927,66.0290532 L91.6205927,57.2673589 C91.6205927,55.1136612 91.2235164,53.4802238 89.0970208,53.4802238 C86.8258062,53.4802238 85.202995,55.4477734 84.6982806,57.8236822 C84.4819745,58.5661538 84.4093574,59.3462792 84.4093574,60.237245 L84.4093574,68.5539867 L79.8303621,68.5539867 L79.8303621,57.2673589 C79.8303621,55.2250319 79.5419539,53.4802238 77.3428413,53.4802238 C75.0355756,53.4802238 73.4848665,55.4477734 72.9080501,57.8613361 C72.7277949,58.6038077 72.6196419,59.3834028 72.6196419,60.237245 L72.6196419,68.5539867 L68.0766976,68.5539867 L68.0766976,54.4459671 L68.0766976,54.4459671 Z" id="Path"></path>
                    <path d="M108.851953,49.173889 C114.115918,49.173889 117,53.146642 117,58.1588551 C117,58.7157087 116.891847,59.9036632 116.891847,59.9036632 L104.200341,59.9036632 C104.560851,63.2453154 106.940734,64.9901234 109.717178,64.9901234 C112.673362,64.9901234 114.872989,62.8740796 114.872989,62.8740796 L116.783694,66.1409543 C116.783694,66.1409543 113.971714,69 109.392203,69 C103.299065,69 99.5131923,64.4703934 99.5131923,59.0874748 C99.5137073,53.2580127 103.335631,49.173889 108.851953,49.173889 Z M112.313367,56.6362581 C112.241265,54.3711896 110.727121,52.8119994 108.851953,52.8119994 C106.508121,52.8119994 104.849774,54.2598189 104.34506,56.6362581 L112.313367,56.6362581 Z" id="Shape"></path>
                </g>
            </g>
        </g>
    </g>
</svg>